<?xml version="1.0" encoding="UTF-8"?>
<svg version="1.1" xmlns="http://www.w3.org/2000/svg" width="851" height="293">
<path d="M0 0 C280.83 0 561.66 0 851 0 C851 96.69 851 193.38 851 293 C570.17 293 289.34 293 0 293 C0 196.31 0 99.62 0 0 Z " fill="#7FD4F0" transform="translate(0,0)"/>
<path d="M0 0 C4.92641046 0.00262215 9.85281954 0.00015956 14.77923012 -0.00138617 C23.04449239 -0.00318165 31.3097456 -0.00087338 39.57500648 0.00395441 C47.92657495 0.00877806 56.27812553 0.00877728 64.62969398 0.00395441 C144.53380956 -0.0409383 144.53380956 -0.0409383 176.84258461 0.579638 C177.87604515 0.59905325 178.90950569 0.61846849 179.97428322 0.63847208 C190.91184214 0.85304555 201.82104516 1.241418 212.74025917 1.91447687 C217.65803022 2.19287117 222.57249946 2.31549262 227.4963932 2.42485285 C269.57173648 3.37202713 311.67529178 6.83218466 353.62383461 10.1343255 C353.62383461 10.4643255 353.62383461 10.7943255 353.62383461 11.1343255 C325.5546492 11.17990016 297.48994553 11.07731763 269.4218843 10.82897139 C264.09136957 10.78219778 258.76083699 10.73753248 253.43030739 10.69249201 C242.89493424 10.6030833 232.35958137 10.51146862 221.82423514 10.41894782 C213.13879801 10.34268037 204.45335487 10.26713335 195.7679081 10.19197321 C112.08175948 9.46718652 28.39595639 8.70242753 -73.94231254 7.74484598 C-86.2073683 7.62993655 -98.47243041 7.51573359 -110.73749787 7.40208019 C-126.70972426 7.25406555 -142.68193608 7.10459473 -158.65412766 6.9528681 C-166.40989134 6.87921914 -174.16565883 6.80609591 -181.92144394 6.73473597 C-223.07587603 6.3555994 -264.22559714 5.81613595 -305.37616539 5.1343255 C-305.37616539 4.8043255 -305.37616539 4.4743255 -305.37616539 4.1343255 C-304.4893911 4.12401804 -303.60261681 4.11371058 -302.68897057 4.10309076 C-291.33466607 3.97064227 -279.98040207 3.83496521 -268.62616539 3.6968255 C-267.70753716 3.68565699 -266.78890892 3.67448847 -265.84244347 3.66298151 C-243.85191673 3.39485421 -221.86343268 3.10614522 -199.87616539 2.6343255 C-183.99268411 2.29380654 -168.10986606 2.05923638 -152.22382164 1.8843255 C-151.27562428 1.87384684 -150.32742691 1.86336817 -149.35049629 1.85257196 C-139.90525865 1.74867461 -130.45999699 1.6477563 -121.01462364 1.55694818 C-103.89296376 1.38777812 -86.7757131 1.19108328 -69.65836143 0.76063585 C-46.43630352 0.17691455 -23.22859853 -0.01638926 0 0 Z " fill="#F6FBFD" transform="translate(453.37616539001465,161.86567449569702)"/>
<path d="M0 0 C1.921875 2.28515625 1.921875 2.28515625 3.75 5.0625 C4.36359375 5.98160156 4.9771875 6.90070313 5.609375 7.84765625 C6.29773438 8.91306641 6.29773438 8.91306641 7 10 C6.67 10.66 6.34 11.32 6 12 C3.36 9.03 0.72 6.06 -2 3 C-10.29124203 5.39591953 -18.32891038 8.26715459 -26.40429688 11.30273438 C-27.34208984 11.65013672 -28.27988281 11.99753906 -29.24609375 12.35546875 C-30.08841553 12.67153076 -30.9307373 12.98759277 -31.79858398 13.31323242 C-34 14 -34 14 -37 14 C-37 14.99 -37 15.98 -37 17 C-36.23558594 16.71125 -35.47117188 16.4225 -34.68359375 16.125 C-23.31762014 12.18589001 -11.75529526 10.88794994 -0.38671875 15.578125 C3.61435096 17.961741 6.32451196 21.2378803 9 25 C4.69230769 32.07692308 4.69230769 32.07692308 1 33 C-1.125 32.03125 -1.125 32.03125 -3 31 C-2.46890625 31.40089844 -1.9378125 31.80179688 -1.390625 32.21484375 C4.71141979 37.12543089 8.33208588 41.75649034 9.33984375 49.66796875 C9.78117831 62.18421693 3.86172112 73.27561016 -1.125 84.4375 C-2.09468065 86.62132872 -3.06268591 88.80588749 -4.0295105 90.99098206 C-4.62737388 92.34078181 -5.2271621 93.68973112 -5.82913208 95.03770447 C-9.67034935 103.67282896 -10.5213701 112.83133843 -7.875 122.0625 C-6.53998336 125.329938 -4.93687346 128.06547341 -2.01171875 130.1875 C2.40442543 131.97110775 7.38313468 131.93237531 12 131 C14.44975703 129.40970558 14.44975703 129.40970558 16 127 C16.48026917 124.4149692 16.48026917 124.4149692 16.25 121.75 C16.21390625 120.85796875 16.1778125 119.9659375 16.140625 119.046875 C16.09421875 118.37140625 16.0478125 117.6959375 16 117 C18.60535808 119.27451896 18.96986767 119.728809 19.375 123.375 C18.96825404 127.30687759 18.52307159 128.98859197 16 132 C7.41341136 137.94456137 -1.54255162 137.18215211 -11.6875 137.1875 C-12.89083984 137.19974609 -14.09417969 137.21199219 -15.33398438 137.22460938 C-38.11203461 137.2615268 -60.90278864 130.4283439 -80 118 C-77.03 113.545 -77.03 113.545 -74 109 C-73 111 -73 111 -73.9375 114.125 C-74.288125 115.07375 -74.63875 116.0225 -75 117 C-64.52224825 122.16834021 -54.19316024 126.61109559 -43 130 C-43.65484375 129.59910156 -44.3096875 129.19820312 -44.984375 128.78515625 C-55.34986827 122.32868375 -64.80732995 115.44499811 -73.5 106.875 C-74.0875708 106.30128662 -74.6751416 105.72757324 -75.28051758 105.13647461 C-78.99269993 101.38349314 -81.56700753 97.68708843 -84 93 C-80.90444714 90.65505969 -77.79721767 88.32611372 -74.6875 86 C-73.80642578 85.33226562 -72.92535156 84.66453125 -72.01757812 83.9765625 C-71.17001953 83.34492188 -70.32246094 82.71328125 -69.44921875 82.0625 C-68.66893311 81.47597656 -67.88864746 80.88945312 -67.0847168 80.28515625 C-65 79 -65 79 -62 79 C-64.43099632 81.15329573 -66.87085256 83.29629403 -69.3125 85.4375 C-70.00279297 86.04916016 -70.69308594 86.66082031 -71.40429688 87.29101562 C-72.07138672 87.87431641 -72.73847656 88.45761719 -73.42578125 89.05859375 C-74.03848877 89.59798584 -74.65119629 90.13737793 -75.2824707 90.69311523 C-77 92 -77 92 -80 93 C-67.29538496 110.27991049 -51.72110949 121.87892113 -32 130 C-31.12085938 130.3815625 -30.24171875 130.763125 -29.3359375 131.15625 C-21.3139527 134.13348147 -12.41916832 133.2476226 -4 133 C-4.64497437 132.33339355 -4.64497437 132.33339355 -5.30297852 131.65332031 C-11.94465783 124.65393775 -13.31854643 117.75224831 -13.3984375 108.28515625 C-12.17230596 98.17558146 -7.52996906 88.96337683 -3.4375 79.75 C-2.54880108 77.73996858 -1.6618483 75.72920416 -0.77784729 73.71710205 C0.02021768 71.9019294 0.82354715 70.08907399 1.62719727 68.27636719 C5.34582291 59.40139722 6.71039281 51.18763933 3 42 C-0.68879481 36.29913529 -4.76520275 34.38857655 -11 32 C-11.66 31.67 -12.32 31.34 -13 31 C-22.90618168 29.4015922 -33.10151733 29.47715651 -43 31 C-34.41095323 24.06269299 -25.78828959 22.30352281 -15 23 C-10.83538745 23.62715823 -7.03423957 24.9340374 -3.1875 26.625 C-0.11946498 28.19804556 -0.11946498 28.19804556 3 28 C3.33 26.68 3.66 25.36 4 24 C-1.22861991 18.94566742 -8.00658023 16.92363939 -15.1875 16.625 C-21.87648542 16.85235371 -28.48568811 18.5777577 -35 20 C-36.66589953 20.33714633 -38.33224072 20.67217709 -40 21 C-40 18.03 -40 15.06 -40 12 C-34.95131 10.11643857 -29.89765463 8.24714111 -24.83886719 6.39086914 C-23.11867698 5.7573966 -21.39990845 5.1200495 -19.68261719 4.47875977 C-17.21392517 3.55763797 -14.74045566 2.65057145 -12.265625 1.74609375 C-11.49881409 1.45657333 -10.73200317 1.16705292 -9.94195557 0.86875916 C-3.69021408 -1.39041632 -3.69021408 -1.39041632 0 0 Z " fill="#F3FAFD" transform="translate(120,67)"/>
<path d="M0 0 C21 0 21 0 29 4 C31.91096205 7.09289717 32.23406255 9.82559761 32.4375 13.9375 C32.27484835 18.69682874 31.26122101 21.39549256 28 25 C26.01910632 26.3615572 24.0210414 27.69878156 22 29 C22.30292969 29.50450684 22.60585938 30.00901367 22.91796875 30.52880859 C24.28318269 32.80819079 25.64165783 35.09151668 27 37.375 C27.71542969 38.56609375 27.71542969 38.56609375 28.4453125 39.78125 C28.89648438 40.54179687 29.34765625 41.30234375 29.8125 42.0859375 C30.23144531 42.7876709 30.65039062 43.4894043 31.08203125 44.21240234 C32 46 32 46 32 48 C28.80078125 48.45703125 28.80078125 48.45703125 25 48 C22.8314887 45.88027067 21.56757116 43.36646167 20.1875 40.6875 C19.80658203 39.99720703 19.42566406 39.30691406 19.03320312 38.59570312 C18.32375735 37.30975501 17.62541001 36.01757397 16.94213867 34.7175293 C16.05083451 33.09267188 15.0280055 31.54200825 14 30 C11.36 29.67 8.72 29.34 6 29 C6 35.27 6 41.54 6 48 C4.02 48 2.04 48 0 48 C0 32.16 0 16.32 0 0 Z " fill="#FCFEFE" transform="translate(242,107)"/>
<path d="M0 0 C2.64 0 5.28 0 8 0 C10.28767525 6.18973386 12.56529312 12.38310001 14.8359375 18.57910156 C15.60966284 20.68672418 16.38569154 22.7935027 17.1640625 24.89941406 C18.28210548 27.92554571 19.39184545 30.95461056 20.5 33.984375 C20.84998047 34.92617615 21.19996094 35.86797729 21.56054688 36.83831787 C21.88087891 37.71892883 22.20121094 38.59953979 22.53125 39.50683594 C22.81548828 40.27960876 23.09972656 41.05238159 23.39257812 41.84857178 C24 44 24 44 24 48 C22.02 48 20.04 48 18 48 C15 41.375 15 41.375 15 38 C7.74 38.33 0.48 38.66 -7 39 C-7.99 41.97 -8.98 44.94 -10 48 C-12.31 48 -14.62 48 -17 48 C-14.61322014 38.01379015 -10.98541833 28.52706117 -7.375 18.9375 C-6.77041482 17.3185156 -6.16624508 15.699376 -5.5625 14.08007812 C-4.98734921 12.54152828 -4.4118417 11.00311173 -3.8359375 9.46484375 C-3.43125748 8.38371559 -3.43125748 8.38371559 -3.0184021 7.28074646 C-1.11883098 2.23766196 -1.11883098 2.23766196 0 0 Z " fill="#F7FCFE" transform="translate(550,107)"/>
<path d="M0 0 C2.64 0 5.28 0 8 0 C12.36303809 10.92204236 16.46854732 21.92947598 20.4375 33 C20.77766144 33.94389587 20.77766144 33.94389587 21.12469482 34.90686035 C21.77284029 36.70747976 22.41582373 38.50995472 23.05859375 40.3125 C23.43298584 41.36050781 23.80737793 42.40851563 24.19311523 43.48828125 C25 46 25 46 25 48 C22.69 48 20.38 48 18 48 C17.01 44.7 16.02 41.4 15 38 C7.74 38 0.48 38 -7 38 C-7.99 41.3 -8.98 44.6 -10 48 C-11.98 48 -13.96 48 -16 48 C-15.40751671 42.05763804 -13.71309781 36.92314797 -11.62109375 31.34765625 C-11.28956802 30.44752304 -10.9580423 29.54738983 -10.61647034 28.61997986 C-9.56329146 25.7650419 -8.50055956 22.9137716 -7.4375 20.0625 C-6.71876575 18.11937549 -6.00066004 16.17601837 -5.28320312 14.23242188 C-3.52939879 9.48555809 -1.76702215 4.74195846 0 0 Z " fill="#F7FCFE" transform="translate(209,107)"/>
<path d="M0 0 C2.64 0 5.28 0 8 0 C10.28767525 6.18973386 12.56529312 12.38310001 14.8359375 18.57910156 C15.60966284 20.68672418 16.38569154 22.7935027 17.1640625 24.89941406 C18.28210548 27.92554571 19.39184545 30.95461056 20.5 33.984375 C20.84998047 34.92617615 21.19996094 35.86797729 21.56054688 36.83831787 C21.88087891 37.71892883 22.20121094 38.59953979 22.53125 39.50683594 C22.81548828 40.27960876 23.09972656 41.05238159 23.39257812 41.84857178 C24 44 24 44 24 48 C22.02 48 20.04 48 18 48 C15 41.375 15 41.375 15 38 C7.74 38.33 0.48 38.66 -7 39 C-7.99 41.97 -8.98 44.94 -10 48 C-12.31 48 -14.62 48 -17 48 C-14.61322014 38.01379015 -10.98541833 28.52706117 -7.375 18.9375 C-6.77041482 17.3185156 -6.16624508 15.699376 -5.5625 14.08007812 C-4.98734921 12.54152828 -4.4118417 11.00311173 -3.8359375 9.46484375 C-3.43125748 8.38371559 -3.43125748 8.38371559 -3.0184021 7.28074646 C-1.11883098 2.23766196 -1.11883098 2.23766196 0 0 Z " fill="#F7FCFE" transform="translate(431,107)"/>
<path d="M0 0 C2.64 0 5.28 0 8 0 C10.18210918 5.80281612 12.36010481 11.60713437 14.53125 17.4140625 C16.05863368 21.4977916 17.5990151 25.57600579 19.15625 29.6484375 C19.79179355 31.328077 20.42721759 33.00776172 21.0625 34.6875 C21.5102478 35.84245972 21.5102478 35.84245972 21.96704102 37.02075195 C23.3839167 40.79359044 24.37537716 43.95071872 24 48 C22.02 48 20.04 48 18 48 C17.01 44.7 16.02 41.4 15 38 C7.74 38 0.48 38 -7 38 C-7.99 41.3 -8.98 44.6 -10 48 C-11.98 48 -13.96 48 -16 48 C-15.40751671 42.05763804 -13.71309781 36.92314797 -11.62109375 31.34765625 C-11.28956802 30.44752304 -10.9580423 29.54738983 -10.61647034 28.61997986 C-9.56329146 25.7650419 -8.50055956 22.9137716 -7.4375 20.0625 C-6.71876575 18.11937549 -6.00066004 16.17601837 -5.28320312 14.23242188 C-3.52939879 9.48555809 -1.76702215 4.74195846 0 0 Z " fill="#F7FCFE" transform="translate(335,107)"/>
<path d="M0 0 C2.71620189 2.41062918 5.08198501 4.90704205 7 8 C7 8.99 7 9.98 7 11 C3.75 11.3125 3.75 11.3125 0 11 C-2.0625 8.6875 -2.0625 8.6875 -4 6 C-9.02772125 2.52847818 -14.07597898 2.03244033 -20 3 C-24.26086622 4.68135362 -27.14886752 6.93608441 -30 10.5 C-31.94330094 17.30155328 -32.30838634 24.96688613 -29.4375 31.5625 C-27.12966282 35.35280204 -24.27273378 37.74331359 -20 39 C-14.59903728 39.7536227 -10.41965893 39.70982947 -5.5 37.25 C-0.56413255 32.80771929 0.03939501 30.86211745 2 24 C-4.27 24 -10.54 24 -17 24 C-17 22.35 -17 20.7 -17 19 C-8.42 19 0.16 19 9 19 C9 28.80483065 8.7387371 31.89910113 3 39 C-2.32145275 44.08335643 -8.06873784 46.06302462 -15.375 46.375 C-21.86638011 46.21667366 -26.1765888 44.61889852 -30.94140625 40.19921875 C-37.19134206 33.47955916 -39.67510085 27.27035132 -39.41015625 18.06640625 C-38.52616621 11.45752837 -35.54495659 6.09686888 -30.6875 1.5625 C-21.24968954 -5.63306608 -10.20982238 -6.06208204 0 0 Z " fill="#F8FCFE" transform="translate(668,110)"/>
<path d="M0 0 C4.81650677 2.90762365 8.55445101 7.06569679 10.3359375 12.41015625 C5.09492552 12.84690725 5.09492552 12.84690725 2.3359375 12.41015625 C0.2109375 10.09765625 0.2109375 10.09765625 -1.6640625 7.41015625 C-6.72305099 3.91704515 -11.71025826 3.57983173 -17.6640625 4.41015625 C-21.80972505 5.73173368 -24.31919722 7.99454937 -27.1015625 11.34765625 C-30.03973133 17.2494326 -29.6666493 24.64897265 -28.00390625 30.88671875 C-26.23728186 34.97060371 -23.90451303 37.79101182 -19.79296875 39.7890625 C-14.3408023 41.37969455 -8.7084315 41.41147984 -3.6015625 38.91015625 C-2.9621875 38.41515625 -2.3228125 37.92015625 -1.6640625 37.41015625 C-1.0040625 37.41015625 -0.3440625 37.41015625 0.3359375 37.41015625 C2.02994465 33.41713941 3.12333021 29.65428177 4.3359375 25.41015625 C-1.9340625 25.41015625 -8.2040625 25.41015625 -14.6640625 25.41015625 C-14.6640625 23.76015625 -14.6640625 22.11015625 -14.6640625 20.41015625 C-6.0840625 20.41015625 2.4959375 20.41015625 11.3359375 20.41015625 C11.3359375 33.12409856 11.3359375 33.12409856 6.3359375 39.41015625 C0.21522718 45.17300246 -5.53494059 47.94095862 -13.9765625 47.71484375 C-20.71614391 46.9507633 -25.98158644 44.59615976 -30.6015625 39.59765625 C-35.59118298 33.18411106 -37.30728972 27.57324518 -37.07421875 19.4765625 C-36.18622064 12.83771948 -33.20416983 7.48834177 -28.2890625 2.97265625 C-19.37282376 -3.79601531 -10.1294825 -4.45761138 0 0 Z " fill="#F8FCFE" transform="translate(719.6640625,108.58984375)"/>
<path d="M0 0 C6 0 6 0 7.84375 1.6328125 C8.3903125 2.45523438 8.936875 3.27765625 9.5 4.125 C10.49386719 5.59839844 10.49386719 5.59839844 11.5078125 7.1015625 C12.34115479 8.39936745 13.17149733 9.69910017 14 11 C14.55913086 11.86850586 15.11826172 12.73701172 15.69433594 13.63183594 C19.36640328 19.33944297 23.00461378 25.06748582 26.61474609 30.81445312 C27.71983442 32.55797633 28.85496478 34.28244717 30 36 C30.33 24.12 30.66 12.24 31 0 C33.31 0 35.62 0 38 0 C38 16.17 38 32.34 38 49 C31 49 31 49 29.18652344 47.43383789 C28.74856445 46.70414795 28.31060547 45.97445801 27.859375 45.22265625 C27.35108154 44.40635742 26.84278809 43.59005859 26.3190918 42.74902344 C25.54239136 41.41919434 25.54239136 41.41919434 24.75 40.0625 C23.62660832 38.23548875 22.50290448 36.40866941 21.37890625 34.58203125 C20.81961426 33.65342285 20.26032227 32.72481445 19.68408203 31.76806641 C17.1092613 27.53592413 14.39601761 23.39722402 11.6875 19.25 C10.140625 16.8575 8.59375 14.465 7 12 C6.67 23.88 6.34 35.76 6 48 C4.02 48 2.04 48 0 48 C0 32.16 0 16.32 0 0 Z " fill="#F7FCFE" transform="translate(583,107)"/>
<path d="M0 0 C7 0 7 0 9.13647461 2.10449219 C9.71921143 3.07547852 10.30194824 4.04646484 10.90234375 5.046875 C11.89717773 6.65755859 11.89717773 6.65755859 12.91210938 8.30078125 C13.58048828 9.43902344 14.24886719 10.57726562 14.9375 11.75 C16.27879156 13.9538292 17.62123785 16.15695602 18.96484375 18.359375 C19.5487085 19.34389648 20.13257324 20.32841797 20.73413086 21.34277344 C24.02100751 26.64795738 27.53818479 31.80727719 31 37 C31.33 24.79 31.66 12.58 32 0 C33.98 0 35.96 0 38 0 C38 15.84 38 31.68 38 48 C31 48 31 48 28.64819336 45.66430664 C27.96893799 44.59043701 27.28968262 43.51656738 26.58984375 42.41015625 C26.02675255 41.54323402 26.02675255 41.54323402 25.45228577 40.65879822 C24.25703555 38.80731329 23.09724642 36.93638193 21.9375 35.0625 C21.15527339 33.8364339 20.37078734 32.61180623 19.58398438 31.38867188 C18.11562333 29.10081828 16.66429183 26.80516176 15.22241211 24.50024414 C12.54911472 20.28986683 9.76649159 16.14973738 7 12 C6.67 23.88 6.34 35.76 6 48 C4.02 48 2.04 48 0 48 C0 32.16 0 16.32 0 0 Z " fill="#FCFEFE" transform="translate(368,107)"/>
<path d="M0 0 C4.04635075 2.56533348 6.89480426 5.6726532 9 10 C9 10.66 9 11.32 9 12 C5.75 12.3125 5.75 12.3125 2 12 C0 9.6875 0 9.6875 -2 7 C-7.02444815 4.19790391 -11.36024933 3.18956339 -17 4 C-23.24279166 5.97688402 -26.05503709 8.5963149 -29.25 14.1875 C-31.0618408 20.98190301 -30.70567344 27.15926743 -27.21484375 33.30859375 C-25.00952355 36.37902349 -22.34605837 38.32697081 -19 40 C-12.78119791 40.52839495 -7.26628679 40.72493456 -2 37 C-1.360625 36.113125 -0.72125 35.22625 -0.0625 34.3125 C2 32 2 32 5.75 31.6875 C6.8225 31.790625 7.895 31.89375 9 32 C7.72974991 37.92783374 4.87134593 40.73639077 0 44 C-5.94463723 47.34856148 -12.2994506 47.96920325 -19 47 C-26.44849295 44.6850727 -31.15722385 40.7315764 -35 34 C-38.04945242 27.90109516 -37.88492214 20.2102936 -36.5 13.62109375 C-34.95873663 9.00606081 -32.65102622 6.12945105 -29 3 C-27.7934375 1.9171875 -27.7934375 1.9171875 -26.5625 0.8125 C-18.45410192 -4.9227084 -8.67168318 -4.09904421 0 0 Z " fill="#F8FCFE" transform="translate(517,109)"/>
<path d="M0 0 C1.98 0 3.96 0 6 0 C6 6.93 6 13.86 6 21 C14.25 21 22.5 21 31 21 C31 14.07 31 7.14 31 0 C32.98 0 34.96 0 37 0 C37 15.84 37 31.68 37 48 C35.02 48 33.04 48 31 48 C31 40.74 31 33.48 31 26 C22.75 26 14.5 26 6 26 C6 33.26 6 40.52 6 48 C4.02 48 2.04 48 0 48 C0 32.16 0 16.32 0 0 Z " fill="#FEFEFE" transform="translate(757,107)"/>
<path d="M0 0 C3.93394724 2.26958494 5.71981969 4.11806559 8.25 7.875 C8.25 9.195 8.25 10.515 8.25 11.875 C4.9375 12.1875 4.9375 12.1875 1.25 11.875 C-0.5625 9.4375 -0.5625 9.4375 -1.75 6.875 C-4.10270593 5.69864703 -5.570752 5.74140641 -8.1875 5.75 C-8.96996094 5.74742188 -9.75242188 5.74484375 -10.55859375 5.7421875 C-12.92895347 5.79117452 -12.92895347 5.79117452 -15.75 6.875 C-15.85836453 8.31083001 -15.93576167 9.7490202 -16 11.1875 C-16.04640625 11.98800781 -16.0928125 12.78851563 -16.140625 13.61328125 C-15.94777995 15.96901104 -15.94777995 15.96901104 -14.1953125 17.52734375 C-11.65778946 18.92581891 -9.14985994 19.77174515 -6.36743164 20.56005859 C-0.45013363 22.23787107 4.79088487 23.77566171 8.4296875 29.05078125 C10.35438849 33.33094964 9.63072071 36.6852478 8.25 41 C5.51010686 44.93859639 2.73571887 47.14405758 -1.75 48.875 C-7.08025963 49.7544546 -11.93928685 49.68652535 -16.75 47.0625 C-17.74 46.340625 -18.73 45.61875 -19.75 44.875 C-20.36875 44.441875 -20.9875 44.00875 -21.625 43.5625 C-23.41707131 40.87439304 -23.45209927 38.03274779 -23.75 34.875 C-21.44 34.875 -19.13 34.875 -16.75 34.875 C-16.46125 35.65875 -16.1725 36.4425 -15.875 37.25 C-14.90087746 39.97171632 -14.90087746 39.97171632 -12.75 41.875 C-10.18343678 42.1566485 -10.18343678 42.1566485 -7.3125 42.0625 C-5.86037109 42.05283203 -5.86037109 42.05283203 -4.37890625 42.04296875 C-1.64054038 41.980232 -1.64054038 41.980232 1.25 40.875 C1.35836453 39.43916999 1.43576167 38.0009798 1.5 36.5625 C1.54640625 35.76199219 1.5928125 34.96148437 1.640625 34.13671875 C1.44832626 31.78207173 1.44832626 31.78207173 -0.30078125 30.23046875 C-4.04637908 28.15754619 -8.07332602 27.0903888 -12.17382812 25.9453125 C-16.88344298 24.50928149 -19.61571308 22.65957823 -22.75 18.875 C-24.37379577 14.00361268 -24.4701099 10.34402421 -22.1875 5.6875 C-15.79431946 -1.68924678 -9.05953917 -2.71786175 0 0 Z " fill="#F7FCFE" transform="translate(176.75,107.125)"/>
<path d="M0 0 C2.5 1 2.5 1 4 2 C4.33 1.34 4.66 0.68 5 0 C6.32 0 7.64 0 9 0 C9 7.59 9 15.18 9 23 C7.68 23 6.36 23 5 23 C4.67 22.01 4.34 21.02 4 20 C2.948125 20.7425 2.948125 20.7425 1.875 21.5 C-1.53516525 23.27921665 -3.20553658 23.61950423 -7 23 C-9.92152702 21.1655528 -12.4326609 19.13467819 -14 16 C-14.44080589 11.6851885 -14.47056025 8.05315866 -12.6875 4.0625 C-9.0557168 -0.37634614 -5.39600076 -0.56457151 0 0 Z " fill="#F5FBFD" transform="translate(697,182)"/>
<path d="M0 0 C0.680625 -0.00515625 1.36125 -0.0103125 2.0625 -0.015625 C4 0.25 4 0.25 7 2.25 C7.33 1.59 7.66 0.93 8 0.25 C9.32 0.25 10.64 0.25 12 0.25 C12 7.84 12 15.43 12 23.25 C10.68 23.25 9.36 23.25 8 23.25 C7.67 22.59 7.34 21.93 7 21.25 C6.484375 21.58 5.96875 21.91 5.4375 22.25 C2.0739584 23.6299145 -0.39238959 23.62974846 -4 23.25 C-7.40918784 21.12872756 -9.78269305 19.12324937 -11 15.25 C-11.480151 10.92864101 -11.29173086 8.7831633 -9.1875 4.9375 C-6.36339875 1.46788989 -4.43466969 -0.03359598 0 0 Z " fill="#F5FBFD" transform="translate(329,181.75)"/>
<path d="M0 0 C2.31 0 4.62 0 7 0 C7.12425623 5.40763101 7.21464659 10.81441829 7.2746582 16.22314453 C7.29969289 18.06020599 7.33373145 19.89716893 7.37719727 21.73388672 C7.43834037 24.38533927 7.46631957 27.03546734 7.48828125 29.6875 C7.51408768 30.49928711 7.5398941 31.31107422 7.56648254 32.14746094 C7.56936567 38.10377195 6.05290533 42.53078199 2 47 C-2.51800534 49.66954621 -6.87241022 49.88081297 -12 49 C-15.04008823 47.51276259 -17.0914876 45.79837094 -19 43 C-19.83768523 40.18416651 -19.94863825 37.97898178 -20 35 C-18.02 35 -16.04 35 -14 35 C-13.71125 35.969375 -13.4225 36.93875 -13.125 37.9375 C-12.35785318 41.10664203 -12.35785318 41.10664203 -10 42 C-6.5 42.33333333 -6.5 42.33333333 -3 42 C-0.39631687 38.0944753 -0.64851503 34.71336111 -0.5859375 30.17578125 C-0.56657135 29.31438034 -0.5472052 28.45297943 -0.5272522 27.56547546 C-0.4674797 24.81458432 -0.42108052 22.06365127 -0.375 19.3125 C-0.33681806 17.44724739 -0.2977662 15.58201237 -0.2578125 13.71679688 C-0.1617801 9.14467414 -0.0777405 4.57246886 0 0 Z " fill="#F5FCFD" transform="translate(302,107)"/>
<path d="M0 0 C2.5 1.5 2.5 1.5 4 3 C4.33 2.01 4.66 1.02 5 0 C5.99 0 6.98 0 8 0 C8 7.26 8 14.52 8 22 C7.01 22 6.02 22 5 22 C4.67 21.34 4.34 20.68 4 20 C2.948125 20.7425 2.948125 20.7425 1.875 21.5 C-1.53516525 23.27921665 -3.20553658 23.61950423 -7 23 C-9.92152702 21.1655528 -12.4326609 19.13467819 -14 16 C-14.53118252 11.08003072 -14.75105553 7.22672403 -12.125 2.9375 C-8.41229462 -0.44761373 -4.87368815 -0.57790769 0 0 Z " fill="#F8FCFE" transform="translate(538,182)"/>
<path d="M0 0 C13.52506793 -0.40985054 13.52506793 -0.40985054 18 3 C20.33909307 6.5086396 20.41291057 7.87089433 20 12 C18.76199686 14.7236069 17.80937358 16.45667051 15.3125 18.1328125 C12.20941521 19.2964693 9.55336879 19.19106738 6.25 19.125 C3.15625 19.063125 3.15625 19.063125 0 19 C0 12.73 0 6.46 0 0 Z " fill="#85D6F0" transform="translate(248,112)"/>
<path d="M0 0 C3.58552881 1.63687185 4.79315055 2.68972583 7 6 C7 8.31 7 10.62 7 13 C1.06 13 -4.88 13 -11 13 C-10.01 14.65 -9.02 16.3 -8 18 C-4.10664693 18.97333827 -1.82146654 19.27382218 2 18 C2 17.34 2 16.68 2 16 C3.32 16 4.64 16 6 16 C5.10768411 19.0825458 4.61713933 20.6297164 1.8125 22.3125 C-1.67087911 23.16399267 -4.42368902 23.38317618 -8 23 C-11.40850414 20.87915298 -13.81386655 18.8818913 -15 15 C-15.7557317 8.30637636 -15.7557317 8.30637636 -13.94921875 5.18359375 C-9.7930428 0.09564974 -6.3996563 -0.70015434 0 0 Z " fill="#F5FBFD" transform="translate(787,182)"/>
<path d="M0 0 C2.96441013 1.26145112 4.43744933 2.22314432 6.3125 4.8125 C7 7 7 7 7 13 C1.06 13 -4.88 13 -11 13 C-9.23148964 16.18074165 -9.23148964 16.18074165 -7 19 C-4.08391002 19.33361919 -4.08391002 19.33361919 -1 19 C0.62514468 17.54166642 0.62514468 17.54166642 2 16 C3.32 16 4.64 16 6 16 C4.98929671 18.6645814 4.0600516 19.95195872 1.8125 21.75 C-1.81496744 23.36220775 -4.06248833 23.55263322 -8 23 C-10.96922861 21.20650621 -13.42452071 19.15095858 -15 16 C-15.63549779 12.05026055 -15.72008507 8.51162896 -13.9765625 4.8515625 C-10.12235059 -0.36546467 -6.25285084 -1.26902877 0 0 Z " fill="#F6FCFE" transform="translate(201,182)"/>
<path d="M0 0 C3.0717718 1.71077974 5.40485654 3.80971307 7 7 C7 8.98 7 10.96 7 13 C1.06 13 -4.88 13 -11 13 C-9.23148964 16.18074165 -9.23148964 16.18074165 -7 19 C-4.08391002 19.33361919 -4.08391002 19.33361919 -1 19 C0.62514468 17.54166642 0.62514468 17.54166642 2 16 C3.32 16 4.64 16 6 16 C4.98929671 18.6645814 4.0600516 19.95195872 1.8125 21.75 C-1.81496744 23.36220775 -4.06248833 23.55263322 -8 23 C-11.47241719 20.97248124 -13.70279738 18.89160785 -15 15 C-15.34547151 9.64519163 -15.46362011 6.3615957 -12 2 C-7.97818385 -0.68121076 -4.72763609 -0.81344335 0 0 Z " fill="#F7FCFE" transform="translate(288,182)"/>
<path d="M0 0 C3.58552881 1.63687185 4.79315055 2.68972583 7 6 C7 8.31 7 10.62 7 13 C1.39 13 -4.22 13 -10 13 C-9.34 14.65 -8.68 16.3 -8 18 C-4.68815293 18.77131906 -4.68815293 18.77131906 -1 19 C1.17032476 17.56009377 1.17032476 17.56009377 3 16 C5.25 16.3125 5.25 16.3125 7 17 C3.375 21.875 3.375 21.875 0 23 C-5.00401435 23.37066773 -7.98301324 23.09881835 -12 20 C-14.9657349 15.55139766 -14.64087636 11.21856465 -14 6 C-10.4285763 0.04762716 -6.70041958 -0.73305934 0 0 Z " fill="#F6FCFE" transform="translate(652,182)"/>
<path d="M0 0 C1.98 0 3.96 0 6 0 C6 15.84 6 31.68 6 48 C4.02 48 2.04 48 0 48 C0 32.16 0 16.32 0 0 Z " fill="#FBFDFE" transform="translate(740,107)"/>
<path d="M0 0 C1.32 0 2.64 0 4 0 C4.33 2.97 4.66 5.94 5 9 C5.66 8.67 6.32 8.34 7 8 C14.02412465 7.30910249 14.02412465 7.30910249 17.7421875 9.94140625 C20.8459027 14.14592009 20.57276519 17.23933083 20.3125 22.3125 C20.28994141 23.14845703 20.26738281 23.98441406 20.24414062 24.84570312 C20.1855061 26.89791149 20.09583215 28.94919202 20 31 C18.68 31 17.36 31 16 31 C15.95101563 29.79601562 15.90203125 28.59203125 15.8515625 27.3515625 C15.77653657 25.77601802 15.70098867 24.20049834 15.625 22.625 C15.5940625 21.8309375 15.563125 21.036875 15.53125 20.21875 C15.48183579 15.63332625 15.48183579 15.63332625 13 12 C10 11.66666667 10 11.66666667 7 12 C3.97906785 15.02093215 4.53323166 18.56372072 4.375 22.625 C4.33632813 23.42679688 4.29765625 24.22859375 4.2578125 25.0546875 C4.16346069 27.03607556 4.08063785 29.01800645 4 31 C2.68 31 1.36 31 0 31 C0 20.77 0 10.54 0 0 Z " fill="#F3FAFD" transform="translate(448,174)"/>
<path d="M0 0 C3.70116811 1.64496361 5.96045688 3.50364036 8 7 C10.66971966 14.29723375 10.38133536 21.67997023 10.47851562 29.37109375 C10.50494141 30.40621094 10.53136719 31.44132812 10.55859375 32.5078125 C10.57204834 33.44254395 10.58550293 34.37727539 10.59936523 35.34033203 C11.07034737 38.4670105 12.23080065 40.40853805 14 43 C11.62255935 42.04902374 10.26973309 41.43474628 8.90014648 39.22729492 C7.902326 36.75831844 7.64325397 34.76705168 7.47265625 32.11328125 C7.40240234 31.17419922 7.33214844 30.23511719 7.25976562 29.26757812 C7.12957044 27.31722853 7.00191317 25.36670764 6.87695312 23.41601562 C6.42259922 17.41117619 5.80248836 11.4286488 3 6 C-0.7347007 3.51019953 -3.68248302 3.60366543 -8 4 C-10.86069302 4.52541667 -10.86069302 4.52541667 -13 6 C-14.29042763 8.26601865 -14.29042763 8.26601865 -15 11 C-15.34417969 11.87398437 -15.68835937 12.74796875 -16.04296875 13.6484375 C-17.19463612 17.68162364 -17.22284195 21.21295388 -17.125 25.375 C-17.11597656 26.11105469 -17.10695312 26.84710938 -17.09765625 27.60546875 C-17.07430144 29.4037888 -17.03843836 31.20193911 -17 33 C-20.49103626 29.50896374 -20.20488082 25.53055722 -20.3125 20.75 C-20.24507191 14.06712699 -19.22127382 9.27879657 -14.46875 4.44140625 C-9.74221584 0.35202743 -6.1914805 -0.66677482 0 0 Z " fill="#EFF9FD" transform="translate(63,76)"/>
<path d="M0 0 C2.38293939 2.13811969 3.55628602 3.89034286 4.60546875 6.90625 C4.86650391 7.65003906 5.12753906 8.39382812 5.39648438 9.16015625 C5.65751953 9.93230469 5.91855469 10.70445313 6.1875 11.5 C6.46013672 12.27214844 6.73277344 13.04429687 7.01367188 13.83984375 C9 19.58476269 9 19.58476269 9 23 C3.72 23 -1.56 23 -7 23 C-5.875 15.125 -5.875 15.125 -4.58984375 11.81640625 C-4.32236328 11.11708984 -4.05488281 10.41777344 -3.77929688 9.69726562 C-3.36260742 8.64055664 -3.36260742 8.64055664 -2.9375 7.5625 C-2.65583984 6.83095703 -2.37417969 6.09941406 -2.08398438 5.34570312 C-1.39586753 3.56126454 -0.69885394 1.78026095 0 0 Z " fill="#84D5F0" transform="translate(553,116)"/>
<path d="M0 0 C0.66 0 1.32 0 2 0 C3.1773496 3.07935966 4.33997891 6.16407516 5.5 9.25 C5.83386719 10.12269531 6.16773438 10.99539062 6.51171875 11.89453125 C6.98544922 13.16103516 6.98544922 13.16103516 7.46875 14.453125 C7.76201172 15.22817383 8.05527344 16.00322266 8.35742188 16.80175781 C9 19 9 19 9 23 C3.72 23 -1.56 23 -7 23 C-5.48526781 15.01323028 -2.83197448 7.59877122 0 0 Z " fill="#84D5F0" transform="translate(212,116)"/>
<path d="M0 0 C2.64180416 1.32090208 2.72285644 2.40954958 3.7265625 5.1484375 C4.0359375 5.98890625 4.3453125 6.829375 4.6640625 7.6953125 C4.98117187 8.57960938 5.29828125 9.46390625 5.625 10.375 C5.94984375 11.2515625 6.2746875 12.128125 6.609375 13.03125 C9 19.60044643 9 19.60044643 9 23 C3.72 23 -1.56 23 -7 23 C-5.875 15.125 -5.875 15.125 -4.58984375 11.81640625 C-4.32236328 11.11708984 -4.05488281 10.41777344 -3.77929688 9.69726562 C-3.36260742 8.64055664 -3.36260742 8.64055664 -2.9375 7.5625 C-2.65583984 6.83095703 -2.37417969 6.09941406 -2.08398438 5.34570312 C-1.39586753 3.56126454 -0.69885394 1.78026095 0 0 Z " fill="#84D5F0" transform="translate(434,116)"/>
<path d="M0 0 C0.66 0 1.32 0 2 0 C3.17430074 3.2681432 4.33811256 6.53992515 5.5 9.8125 C5.83386719 10.74126953 6.16773438 11.67003906 6.51171875 12.62695312 C6.98544922 13.9659668 6.98544922 13.9659668 7.46875 15.33203125 C7.90864258 16.56530151 7.90864258 16.56530151 8.35742188 17.82348633 C9 20 9 20 9 23 C3.72 23 -1.56 23 -7 23 C-5.48526781 15.01323028 -2.83197448 7.59877122 0 0 Z " fill="#84D5F0" transform="translate(338,116)"/>
<path d="M0 0 C3.63525215 2.60789828 4.83397068 4.0702358 5.625 8.5 C5 12 5 12 2.9375 15 C0 17 0 17 -3.625 17.0625 C-7 16 -7 16 -8.9375 14.4375 C-10.47521261 10.90980637 -10.69010754 7.78396047 -10 4 C-7.317936 -0.12625231 -4.78913194 -0.87963648 0 0 Z " fill="#84D5F0" transform="translate(697,185)"/>
<path d="M0 0 C4.99268902 1.47931526 4.99268902 1.47931526 6.375 4 C7.01996732 8.99849676 7.18303616 10.89183613 4.1875 15 C1.375 17 1.375 17 -1.1875 17.5625 C-4.36310981 16.82966697 -5.57772307 15.48597913 -7.625 13 C-9.06930855 10.11138291 -9.00188506 8.20352299 -8.625 5 C-5.91953265 1.14675862 -4.77773264 0 0 0 Z " fill="#84D5F0" transform="translate(330.625,185)"/>
<path d="M0 0 C1.83984375 0.60546875 1.83984375 0.60546875 3.83984375 2.29296875 C5.1882876 5.41124515 5.37982269 7.23060039 4.83984375 10.60546875 C3.45294302 13.3731062 2.28315843 14.47406658 -0.16015625 16.60546875 C-3.71729135 16.66679867 -5.97575136 16.51232168 -8.84375 14.31640625 C-10.95364201 11.57417271 -10.6365253 9.12103779 -10.5 5.7734375 C-10.16015625 3.60546875 -10.16015625 3.60546875 -8.66015625 0.98046875 C-5.47936599 -0.76896589 -3.51368073 -0.66085988 0 0 Z " fill="#84D5F0" transform="translate(538.16015625,185.39453125)"/>
<path d="M0 0 C3 1.8125 3 1.8125 5 4 C5 4.99 5 5.98 5 7 C3.68 7 2.36 7 1 7 C0.34 6.01 -0.32 5.02 -1 4 C-3.58380177 3.74969023 -3.58380177 3.74969023 -6 4 C-6.66 5.32 -7.32 6.64 -8 8 C-7.31292969 8.18175781 -6.62585938 8.36351562 -5.91796875 8.55078125 C-5.01691406 8.80214844 -4.11585938 9.05351562 -3.1875 9.3125 C-2.29417969 9.55613281 -1.40085937 9.79976562 -0.48046875 10.05078125 C2.10432225 11.03992174 3.38244917 11.76777985 5 14 C4.9375 17.5625 4.9375 17.5625 4 21 C1.61804823 23.10711118 -0.26227627 23.02861196 -3.4375 23.375 C-7.5826378 22.9386697 -9.16545073 22.00634014 -12 19 C-12 18.01 -12 17.02 -12 16 C-10.68 16 -9.36 16 -8 16 C-7.34 16.99 -6.68 17.98 -6 19 C-2.41642759 19.25015873 -2.41642759 19.25015873 1 19 C0.88127421 17.04437823 0.88127421 17.04437823 0 15 C-2.24275547 13.74912218 -2.24275547 13.74912218 -4.9375 12.9375 C-9.79369981 11.30945028 -9.79369981 11.30945028 -12 8 C-11.79874167 5.31655567 -11.29749125 3.50748507 -9.9375 1.1875 C-6.77919836 -0.74823326 -3.53678886 -0.63304392 0 0 Z " fill="#F4FBFD" transform="translate(743,182)"/>
<path d="M0 0 C3 1.8125 3 1.8125 5 4 C5 4.99 5 5.98 5 7 C3.68 7 2.36 7 1 7 C0.34 6.01 -0.32 5.02 -1 4 C-4.08365871 3.7497843 -4.08365871 3.7497843 -7 4 C-7 5.32 -7 6.64 -7 8 C-6.30132812 8.26554688 -5.60265625 8.53109375 -4.8828125 8.8046875 C-3.51769531 9.33449219 -3.51769531 9.33449219 -2.125 9.875 C-0.76761719 10.39707031 -0.76761719 10.39707031 0.6171875 10.9296875 C3 12 3 12 5 14 C5.4375 16.375 5.4375 16.375 5 19 C2.25985609 22.07228257 0.58796759 22.91600463 -3.5 23.5 C-7.54347727 22.92236039 -9.21679254 21.9518867 -12 19 C-12 18.01 -12 17.02 -12 16 C-10.68 16 -9.36 16 -8 16 C-7.34 16.99 -6.68 17.98 -6 19 C-3.41619823 19.25030977 -3.41619823 19.25030977 -1 19 C-0.67 17.68 -0.34 16.36 0 15 C-0.69867188 14.73445312 -1.39734375 14.46890625 -2.1171875 14.1953125 C-3.02726563 13.84210938 -3.93734375 13.48890625 -4.875 13.125 C-5.77992188 12.77695313 -6.68484375 12.42890625 -7.6171875 12.0703125 C-10 11 -10 11 -12 9 C-11.8125 5.5 -11.8125 5.5 -11 2 C-7.31028744 -0.45980837 -4.28401332 -0.69177647 0 0 Z " fill="#F6FBFD" transform="translate(244,182)"/>
<path d="M0 0 C3.0625 1.8125 3.0625 1.8125 5 4 C5 4.99 5 5.98 5 7 C3.68 7 2.36 7 1 7 C0.54625 6.505 0.0925 6.01 -0.375 5.5 C-2.00656664 3.71046115 -2.00656664 3.71046115 -5 3.5625 C-8.02736015 3.7287461 -8.02736015 3.7287461 -9.875 5.625 C-11.6350803 9.34072509 -11.3945749 12.37785874 -10.4375 16.3125 C-8.9738018 18.34164041 -8.9738018 18.34164041 -5.625 19 C-1.96524412 19.40058379 -1.96524412 19.40058379 0.1875 17.0625 C0.785625 16.381875 1.38375 15.70125 2 15 C3.32 15 4.64 15 6 15 C5.09126425 18.05665662 4.32469175 19.72305703 1.875 21.8125 C-1.86818203 23.35859693 -5.00646403 23.7503007 -9 23 C-11.8100346 21.20636089 -13.50940468 19.98119065 -15 17 C-15.51124099 11.79539913 -15.86132441 7.43554069 -13.125 2.875 C-9.10105649 -0.67553839 -5.19091598 -0.66228928 0 0 Z " fill="#F5FBFD" transform="translate(417,182)"/>
<path d="M0 0 C4.65553289 -0.46555329 8.63399746 -0.82636291 12.5 2.125 C15.21550125 5.24782644 15.81037036 6.92296284 16 11 C12.18133843 12.79701721 9.20983641 13.7016394 5 13 C1.1709034 9.58710955 0.10330755 8.28101364 -0.3125 3.125 C-0.209375 2.09375 -0.10625 1.0625 0 0 Z " fill="#F5FBFD" transform="translate(98,115)"/>
<path d="M0 0 C0.99 0 1.98 0 3 0 C3 1.65 3 3.3 3 5 C4.98 5 6.96 5 9 5 C9 5.99 9 6.98 9 8 C7.02 8 5.04 8 3 8 C3.33 12.95 3.66 17.9 4 23 C5.65 23.33 7.3 23.66 9 24 C9 25.32 9 26.64 9 28 C3.48968706 28.3673542 3.48968706 28.3673542 1.3190918 26.73901367 C-0.28288089 24.62706633 -0.35212199 23.6107416 -0.29296875 20.98828125 C-0.28330078 20.23095703 -0.27363281 19.47363281 -0.26367188 18.69335938 C-0.23853516 17.90767578 -0.21339844 17.12199219 -0.1875 16.3125 C-0.16719727 15.11657227 -0.16719727 15.11657227 -0.14648438 13.89648438 C-0.11117089 11.93070033 -0.05736447 9.96526418 0 8 C-0.99 8 -1.98 8 -3 8 C-3 7.01 -3 6.02 -3 5 C-2.01 5 -1.02 5 0 5 C0 3.35 0 1.7 0 0 Z " fill="#F8FCFE" transform="translate(574,177)"/>
<path d="M0 0 C1.32 0 2.64 0 4 0 C4.33 0.66 4.66 1.32 5 2 C5.66 1.34 6.32 0.68 7 0 C8.32 0 9.64 0 11 0 C11 1.32 11 2.64 11 4 C9.02 4.66 7.04 5.32 5 6 C4.67 11.61 4.34 17.22 4 23 C2.68 23 1.36 23 0 23 C0 15.41 0 7.82 0 0 Z " fill="#F6FCFE" transform="translate(152,182)"/>
<path d="M0 0 C0.99 0 1.98 0 3 0 C3.33 0.66 3.66 1.32 4 2 C4.66 1.34 5.32 0.68 6 0 C8.625 -0.125 8.625 -0.125 11 0 C11 1.32 11 2.64 11 4 C10.030625 4.309375 9.06125 4.61875 8.0625 4.9375 C5.15934208 5.69523342 5.15934208 5.69523342 4 7 C3.76346477 9.52596259 3.57826308 12.03107207 3.4375 14.5625 C3.39431641 15.27341797 3.35113281 15.98433594 3.30664062 16.71679688 C3.20028223 18.47761912 3.09961154 20.2387832 3 22 C2.01 22 1.02 22 0 22 C0 14.74 0 7.48 0 0 Z " fill="#FCFEFE" transform="translate(368,182)"/>
<path d="M0 0 C2.375 1.8125 2.375 1.8125 4 4 C4 4.99 4 5.98 4 7 C-0.62 7 -5.24 7 -10 7 C-9.67 5.35 -9.34 3.7 -9 2 C-5.50875983 -0.32749345 -4.10777749 -0.50299316 0 0 Z " fill="#89D7F1" transform="translate(287,185)"/>
<path d="M0 0 C2.375 1.8125 2.375 1.8125 4 4 C4 4.99 4 5.98 4 7 C-0.62 7 -5.24 7 -10 7 C-9.67 5.35 -9.34 3.7 -9 2 C-5.50875983 -0.32749345 -4.10777749 -0.50299316 0 0 Z " fill="#88D7F1" transform="translate(200,185)"/>
<path d="M0 0 C2.375 1.8125 2.375 1.8125 4 4 C4 4.99 4 5.98 4 7 C-0.62 7 -5.24 7 -10 7 C-8.45570268 0.82281074 -6.50414829 -0.92916404 0 0 Z " fill="#87D6F0" transform="translate(786,185)"/>
<path d="M0 0 C3.43034728 0.34303473 4.79191977 0.79995207 7.125 3.3125 C7.125 4.6325 7.125 5.9525 7.125 7.3125 C2.505 7.3125 -2.115 7.3125 -6.875 7.3125 C-4.12954545 0.44886364 -4.12954545 0.44886364 0 0 Z " fill="#87D7F1" transform="translate(647.875,184.6875)"/>
<path d="M0 0 C0.99 0.495 0.99 0.495 2 1 C5.24169116 1.44667232 8.48747536 1.8326511 11.73828125 2.20703125 C15.49627171 3.12065049 17.33184901 4.21520852 20 7 C20.8125 9.75 20.8125 9.75 21 12 C20.443125 11.57847656 19.88625 11.15695313 19.3125 10.72265625 C13.97548132 6.85055839 13.97548132 6.85055839 7.6875 5.3125 C3.97921308 4.9982384 2.5419314 4.64784521 0 2 C0 1.34 0 0.68 0 0 Z " fill="#F0FAFD" transform="translate(96,107)"/>
<path d="M0 0 C0.66 0.33 1.32 0.66 2 1 C2 7.93 2 14.86 2 22 C-0.90413646 19.09586354 -0.96053231 16.92981244 -1.1328125 12.87109375 C-1.13023438 11.73800781 -1.12765625 10.60492188 -1.125 9.4375 C-1.12757812 8.30183594 -1.13015625 7.16617188 -1.1328125 5.99609375 C-1 3 -1 3 0 0 Z " fill="#DEF4FB" transform="translate(44,87)"/>
<path d="M0 0 C2.60535808 2.27451896 2.96986767 2.728809 3.375 6.375 C2.97918682 10.20119411 2.38396327 12.02004591 0 15 C-2.1875 16.3125 -2.1875 16.3125 -4 17 C-3.36416185 13.31213873 -3.36416185 13.31213873 -1.46875 11.6875 C0.55685014 9.36021474 0.30568873 7.84601076 0.1875 4.8125 C0.16042969 3.91144531 0.13335937 3.01039063 0.10546875 2.08203125 C0.07066406 1.39496094 0.03585938 0.70789063 0 0 Z " fill="#E6F6FC" transform="translate(136,184)"/>
<path d="M0 0 C3.3125 0.1875 3.3125 0.1875 7 1 C8.9375 3.5625 8.9375 3.5625 10 6 C9.01 6.33 8.02 6.66 7 7 C6.5875 6.360625 6.175 5.72125 5.75 5.0625 C3.82189513 2.79009069 2.88575819 2.39803561 0 2 C0 1.34 0 0.68 0 0 Z " fill="#8BD8F1" transform="translate(101,118)"/>
<path d="M0 0 C3.05081496 0.31723076 3.90666113 0.88901781 5.921875 3.28515625 C6.52515625 4.20167969 7.1284375 5.11820312 7.75 6.0625 C8.36359375 6.98160156 8.9771875 7.90070313 9.609375 8.84765625 C10.06828125 9.55792969 10.5271875 10.26820312 11 11 C10.67 11.66 10.34 12.32 10 13 C8.51511559 11.40112446 7.03726855 9.79571095 5.5625 8.1875 C4.32693359 6.84751953 4.32693359 6.84751953 3.06640625 5.48046875 C1 3 1 3 0 0 Z " fill="#E5F6FB" transform="translate(116,66)"/>
<path d="M0 0 C0.99 0.495 0.99 0.495 2 1 C3.70363822 1.22622081 5.41328701 1.40888473 7.125 1.5625 C8.03507812 1.64628906 8.94515625 1.73007813 9.8828125 1.81640625 C10.58148438 1.87699219 11.28015625 1.93757813 12 2 C8.3203125 5.0234375 8.3203125 5.0234375 5.4375 4.8125 C3 4 3 4 0 2 C0 1.34 0 0.68 0 0 Z " fill="#E2F5FB" transform="translate(96,107)"/>
<path d="M0 0 C1.65 0 3.3 0 5 0 C5 1.32 5 2.64 5 4 C3.02 4.33 1.04 4.66 -1 5 C-0.67 3.35 -0.34 1.7 0 0 Z " fill="#E6F6FC" transform="translate(374,182)"/>
<path d="M0 0 C-2.39509338 2.89932357 -4.31245243 3.50168276 -8 4 C-8 3.01 -8 2.02 -8 1 C-3.375 -1.125 -3.375 -1.125 0 0 Z " fill="#93DAF2" transform="translate(91,80)"/>
<path d="M0 0 C0.66 0.33 1.32 0.66 2 1 C-0.97 3.64 -3.94 6.28 -7 9 C-7.66 8.34 -8.32 7.68 -9 7 C-6.03 4.69 -3.06 2.38 0 0 Z " fill="#E1F4FB" transform="translate(56,145)"/>
</svg>
